<?xml version="1.0" encoding="UTF-8"?>
<!DOCTYPE svg PUBLIC "-//W3C//DTD SVG 1.1//EN" "http://www.w3.org/Graphics/SVG/1.1/DTD/svg11.dtd">
<!-- Creator: CorelDRAW (Versão OEM) -->
<svg xmlns="http://www.w3.org/2000/svg" xml:space="preserve" width="7.65mm" height="6.603mm" version="1.1" style="shape-rendering:geometricPrecision; text-rendering:geometricPrecision; image-rendering:optimizeQuality; fill-rule:evenodd; clip-rule:evenodd"
viewBox="0 0 901.23 777.89"
 xmlns:xlink="http://www.w3.org/1999/xlink"
 xmlns:xodm="http://www.corel.com/coreldraw/odm/2003">
 <defs>
  <style type="text/css">
   <![CDATA[
    .fil0 {fill:#009B34;fill-rule:nonzero}
   ]]>
  </style>
 </defs>
 <g id="Camada_x0020_14">
  <metadata id="CorelCorpID_0Corel-Layer"/>
  <path class="fil0" d="M44.63 0l606.17 0c2.37,0 4.3,1.93 4.3,4.3l0 72.82c0,2.38 -1.93,4.31 -4.3,4.31l-606.17 0c-2.38,0 -4.3,-1.93 -4.3,-4.31l-0.01 -72.82c0.01,-2.37 1.93,-4.3 4.31,-4.3l0 0zm735.32 656.6c-0.16,0.16 -0.33,0.37 -0.49,0.61 -0.29,0.34 -0.47,0.78 -0.49,1.23l-1.11 114.65c0,2.64 -2.14,4.78 -4.79,4.78l-71.46 0.01c-2.52,-0.01 -4.55,-2.04 -4.55,-4.56l0 -111.93c0,-3.53 -2.86,-6.4 -6.4,-6.4l-111.82 0c-2.58,0 -4.67,-2.14 -4.67,-4.79l0 -71.46c0,-0.01 0,-0.01 0,-0.01 0,-2.6 2.07,-4.72 4.68,-4.79 31.49,-0.33 64.65,-0.28 99.5,0.13 10.01,0.08 15.72,-0.58 17.11,-1.97 1.39,-1.4 2.05,-7.09 1.97,-17.09 -0.49,-34.86 -0.58,-68.03 -0.25,-99.51 0.07,-2.62 2.19,-4.69 4.79,-4.69 0,0 0,0 0,0l71.46 0.01c2.65,0 4.81,2.09 4.81,4.67l0 111.82c0,-0.01 0,-0.01 0,-0.01 0,3.53 2.86,6.4 6.4,6.4 0.04,0 0.08,0 0.12,0l111.93 0c2.52,0 4.56,2.04 4.56,4.55l0 71.47c0,2.65 -2.14,4.79 -4.79,4.79l-114.65 1.12c-0.01,-0.01 -0.02,-0.01 -0.05,-0.01 -0.47,0 -0.94,0.18 -1.3,0.49 -0.16,0.16 -0.33,0.33 -0.49,0.49zm-778.88 -255.24c-1.47,-39.11 -1.43,-63.88 0.13,-74.29 3.44,-23.13 16.4,-89.68 38.86,-199.64 0.47,-2.56 2.7,-4.42 5.29,-4.43l602.73 0c4.18,-0.02 7.85,2.95 8.73,7.12 25.95,129.05 43.31,179.73 38.88,271.62 -0.2,4.05 -3.56,7.25 -7.62,7.25 0,0 0,0 -0.01,0l-26.07 0.01c-3.73,0 -6.76,3.03 -6.76,6.76l0 111.56c-0.01,2.58 -2.1,4.68 -4.68,4.68l-71.47 0c-2.71,0 -4.91,-2.2 -4.91,-4.92l0 -110.95c0,-4.08 -3.31,-7.39 -7.39,-7.39l-153.27 0.01c-2.37,0 -4.3,1.92 -4.3,4.3l0 237.65c0,2.3 -1.92,4.17 -4.3,4.17l-360.41 0.01c-2.31,-0.01 -4.18,-1.88 -4.18,-4.19l0 -234.57c0.01,-4.15 -3.3,-7.5 -7.37,-7.5l-24.23 0c-4.11,0 -7.49,-3.2 -7.62,-7.26l-0.01 0zm83.64 -79.83c-0.06,0.33 -0.09,0.66 -0.09,0.99 0,2.77 2.25,5.03 5.02,5.04l516.62 0c2.78,-0.01 5.02,-2.27 5.02,-5.04 0,-0.33 -0.04,-0.66 -0.09,-0.99l-22.15 -113.04c-0.47,-2.37 -2.53,-4.06 -4.95,-4.06 -0.04,0 -0.06,0 -0.09,0l-471.98 0c-0.02,0 -0.06,0 -0.09,0 -2.4,0 -4.48,1.7 -4.94,4.05l-22.28 113.05zm243.31 92.75c0,-3.06 -2.47,-5.55 -5.54,-5.55l-193.85 0.01c-3.05,-0.01 -5.54,2.47 -5.54,5.53l0 153.76c0,3.05 2.49,5.54 5.54,5.54l193.85 0c3.06,0 5.54,-2.49 5.54,-5.54l0 -153.75z"/>
 </g>
</svg>
