<?xml version="1.0" encoding="UTF-8"?>
<!DOCTYPE svg PUBLIC "-//W3C//DTD SVG 1.1//EN" "http://www.w3.org/Graphics/SVG/1.1/DTD/svg11.dtd">
<!-- Creator: CorelDRAW (Versão OEM) -->
<svg xmlns="http://www.w3.org/2000/svg" xml:space="preserve" width="7.3007mm" height="6.7792mm" version="1.1" style="shape-rendering:geometricPrecision; text-rendering:geometricPrecision; image-rendering:optimizeQuality; fill-rule:evenodd; clip-rule:evenodd"
viewBox="0 0 24.18 22.45"
 xmlns:xlink="http://www.w3.org/1999/xlink"
 xmlns:xodm="http://www.corel.com/coreldraw/odm/2003">
 <defs>
  <style type="text/css">
   <![CDATA[
    .fil0 {fill:#009B34;fill-rule:nonzero}
   ]]>
  </style>
 </defs>
 <g id="Camada_x0020_14">
  <metadata id="CorelCorpID_0Corel-Layer"/>
  <path class="fil0" d="M6.98 0c-0.01,2.28 0,4.66 -0,7.02 -0,0.01 0,0.03 0,0.04 0.02,0.09 0.11,0.15 0.2,0.13 0.01,-0 0.03,-0.01 0.04,-0.01 2.35,-1.22 4.67,-2.42 7.09,-3.6 0.36,-0.17 0.78,-0.1 1.04,0.18 0.1,0.11 0.16,0.38 0.19,0.83 0.01,0.18 0.01,0.99 -0.01,2.44 -0,0 -0,0 -0,0 0,0.09 0.07,0.16 0.16,0.16 0.03,0 0.05,-0.01 0.07,-0.02 2.34,-1.19 4.67,-2.36 7,-3.51 0.47,-0.23 0.95,-0.15 1.43,0.26l0 18.54 -24.18 0 0 -22.1 0 -0.35 0.3 0 6.67 0zm6.85 9.85l0 -3.9c0,-0.01 -0,-0.02 -0,-0.04 -0.02,-0.09 -0.11,-0.14 -0.2,-0.12 -0.01,0 -0.02,0.01 -0.04,0.01l-8.22 4.12c-0.02,0.01 -0.04,0.01 -0.06,0.01 -0.07,0 -0.12,-0.05 -0.12,-0.12l0 -7.85c0,-0.14 -0.11,-0.26 -0.26,-0.26l-2.98 0c-0.13,0 -0.24,0.11 -0.24,0.24l-0 18.58c0,0.12 0.1,0.22 0.22,0.22l9.93 0c0.12,0 0.22,-0.1 0.22,-0.22l0.02 -6.82c0,-0.4 0.33,-0.73 0.73,-0.73 0,0 0,0 0,0 0.08,0 1.79,-0.01 5.13,-0.03 0.67,-0 1,0.31 1.01,0.96 0.01,2.01 0.01,4.21 0,6.61 0,0.13 0.11,0.23 0.23,0.23l3.03 0c0.12,-0 0.21,-0.09 0.21,-0.21l-0 -14.58c0,-0.01 -0,-0.03 -0,-0.04 -0.02,-0.09 -0.11,-0.14 -0.19,-0.12 -0.01,0 -0.02,0.01 -0.04,0.01l-8.25 4.13c-0.01,0.01 -0.03,0.01 -0.05,0.01 -0.06,0 -0.1,-0.05 -0.1,-0.1 0,-0 0,-0 0,-0l0 0zm3.46 5.09c-0,-0.15 -0.12,-0.27 -0.27,-0.27 0,0 -0,0 -0,0l-2.94 0c-0.15,0 -0.27,0.12 -0.27,0.27 0,0 0,0 0,0l0.01 5.53c0,0.15 0.12,0.27 0.27,0.27 0,0 0,0 0,0l2.94 -0c0.15,-0 0.27,-0.12 0.27,-0.27 0,-0 0,-0 0,-0l-0.01 -5.53z"/>
 </g>
</svg>
