<?xml version="1.0" encoding="UTF-8"?>
<!DOCTYPE svg PUBLIC "-//W3C//DTD SVG 1.1//EN" "http://www.w3.org/Graphics/SVG/1.1/DTD/svg11.dtd">
<!-- Creator: CorelDRAW (Versão OEM) -->
<svg xmlns="http://www.w3.org/2000/svg" xml:space="preserve" width="7.5415mm" height="5.4841mm" version="1.1" style="shape-rendering:geometricPrecision; text-rendering:geometricPrecision; image-rendering:optimizeQuality; fill-rule:evenodd; clip-rule:evenodd"
viewBox="0 0 27.36 19.89"
 xmlns:xlink="http://www.w3.org/1999/xlink"
 xmlns:xodm="http://www.corel.com/coreldraw/odm/2003">
 <defs>
  <style type="text/css">
   <![CDATA[
    .fil0 {fill:#009B34;fill-rule:nonzero}
   ]]>
  </style>
 </defs>
 <g id="Camada_x0020_14">
  <metadata id="CorelCorpID_0Corel-Layer"/>
  <path class="fil0" d="M19.89 0.29l0 4.47c0,0.1 0.09,0.19 0.19,0.19l3.33 0c0.13,-0 0.25,0.06 0.33,0.17l3.44 4.58c0.12,0.15 0.18,0.34 0.18,0.53l0 5.79c0,0.07 -0.06,0.13 -0.14,0.13l-2.13 0c0,0 0,0 0,0 -0.12,0 -0.21,0.1 -0.21,0.21 0,0 0,0 0,0 0.01,0.41 -0.22,1.26 -0.45,1.63 -1.99,3.18 -6.67,2.19 -7.02,-1.62 -0.01,-0.13 -0.12,-0.23 -0.25,-0.23l-6.93 0c-0.12,0 -0.22,0.09 -0.24,0.21 -0.37,2.18 -1.53,3.36 -3.5,3.52 -2.13,0.18 -3.85,-1.41 -4.01,-3.5 -0.01,-0.13 -0.12,-0.24 -0.25,-0.24 0,0 -0,0 -0,0l-2.04 0c-0.1,0 -0.18,-0.08 -0.18,-0.18 0.01,-2.09 0.01,-6.29 -0.01,-12.63 -0.01,-2.1 0.56,-3.31 2.74,-3.32 6.78,-0.03 12.4,-0.03 16.87,-0.01 0.15,0 0.28,0.13 0.28,0.28zm-17.4 2.45l0 10.51c0,0.3 0.25,0.55 0.55,0.55 0.13,0 0.26,-0.05 0.36,-0.14 1.83,-1.61 3.64,-1.65 5.44,-0.12 0.12,0.1 0.27,0.15 0.41,0.15l7.96 0c0.12,0 0.22,-0.1 0.22,-0.22l0 -10.86c0,-0.07 -0.06,-0.13 -0.13,-0.13l-14.55 0c-0.14,0 -0.26,0.12 -0.26,0.26l-0 0zm17.53 4.73c-0.07,0 -0.12,0.06 -0.12,0.12l0 3.49c0,0.07 0.06,0.12 0.12,0.12l4.96 0c0.07,-0 0.12,-0.06 0.12,-0.12 0,-0.03 -0.01,-0.05 -0.03,-0.07l-2.62 -3.49c-0.02,-0.03 -0.06,-0.05 -0.1,-0.05l-2.34 0zm-12.53 8.7c0,-0.69 -0.56,-1.26 -1.26,-1.26 -0.69,0 -1.26,0.56 -1.26,1.26 0,0.69 0.56,1.26 1.26,1.26 0.69,0 1.26,-0.56 1.26,-1.26l0 0zm14.94 0c0,-0.7 -0.57,-1.26 -1.26,-1.26 -0.7,0 -1.26,0.57 -1.26,1.26 0,0.7 0.57,1.26 1.26,1.26 0.7,0 1.26,-0.57 1.26,-1.26l0 0z"/>
 </g>
</svg>
