<?xml version="1.0" encoding="UTF-8"?>
<!DOCTYPE svg PUBLIC "-//W3C//DTD SVG 1.1//EN" "http://www.w3.org/Graphics/SVG/1.1/DTD/svg11.dtd">
<!-- Creator: CorelDRAW (Versão OEM) -->
<svg xmlns="http://www.w3.org/2000/svg" xml:space="preserve" width="7.6643mm" height="6.6928mm" version="1.1" style="shape-rendering:geometricPrecision; text-rendering:geometricPrecision; image-rendering:optimizeQuality; fill-rule:evenodd; clip-rule:evenodd"
viewBox="0 0 51.24 44.75"
 xmlns:xlink="http://www.w3.org/1999/xlink"
 xmlns:xodm="http://www.corel.com/coreldraw/odm/2003">
 <defs>
  <style type="text/css">
   <![CDATA[
    .fil0 {fill:#009B34;fill-rule:nonzero}
   ]]>
  </style>
 </defs>
 <g id="Camada_x0020_14">
  <metadata id="CorelCorpID_0Corel-Layer"/>
  <path class="fil0" d="M47.22 0c5.4,0.43 4.91,8.18 1.17,9.21 -0.31,0.28 -0.48,0.67 -0.48,1.07 -0.06,10.94 -0.12,21.89 -0.18,32.83 0.01,1.17 -0.52,1.66 -1.26,1.64l-41.68 0c-1.05,-0.02 -1.57,-0.62 -1.57,-1.8 -0.01,-10.72 -0.01,-21.66 -0.02,-32.81 0,-0.38 -0.21,-0.74 -0.55,-0.94 -1.27,-0.71 -2.15,-1.89 -2.67,-3.55l0 -1.76c0.53,-2 1.85,-3.29 3.95,-3.89l43.28 0zm-5.73 36.92c-0,0.8 -0.65,1.45 -1.45,1.45 -0,0 -0.01,0 -0.01,0l-9.83 -0.05c-0.8,-0 -1.45,-0.65 -1.45,-1.45 0,-0 0,-0.01 0,-0.01l0.03 -6.65c0,-0.8 0.65,-1.45 1.45,-1.45 0,0 0.01,0 0.01,0l9.83 0.05c0.8,0 1.45,0.65 1.45,1.45 0,0 0,0 0,0.01l-0.03 6.65zm-3.08 -3.99c0,-0 0,-0.01 0,-0.01 0,-0.52 -0.42,-0.94 -0.94,-0.95l-4.54 -0.05c-0,-0 -0.01,-0 -0.01,-0 -0.52,0 -0.94,0.42 -0.95,0.94l-0.02 1.26c0,0 0,0.01 0,0.01 0,0.52 0.42,0.94 0.94,0.95l4.54 0.06c0,0 0.01,0 0.01,0 0.52,0 0.94,-0.42 0.95,-0.94l0.02 -1.26zm3.09 -8.78c0,0.78 -0.63,1.41 -1.41,1.41l-29.05 0c-0.78,-0 -1.41,-0.63 -1.41,-1.41l0 -9.94c0,-0.78 0.63,-1.41 1.41,-1.41l29.05 0c0.78,0 1.41,0.63 1.41,1.41l0 9.94zm-3.11 -7.61c0,-0.31 -0.25,-0.56 -0.56,-0.56l-24.48 0c-0.31,0 -0.56,0.25 -0.56,0.56l-0 5.27c0,0.31 0.25,0.56 0.56,0.56l24.48 0c0.31,0 0.56,-0.25 0.56,-0.56l0 -5.27zm9.51 -11.85c0,-0.83 -0.67,-1.49 -1.49,-1.49l-41.65 0c-0.83,0 -1.49,0.67 -1.49,1.49l0 0.21c0,0.83 0.67,1.49 1.49,1.49l41.65 0c0.83,0 1.49,-0.67 1.49,-1.49l0 -0.21zm-3.86 36.85c0.4,-0 0.72,-0.32 0.72,-0.72l0 -30.52c0,-0.4 -0.32,-0.72 -0.72,-0.72l-36.95 0c-0.4,0 -0.72,0.32 -0.72,0.72l-0 30.48c0,0.4 0.32,0.72 0.72,0.72l1.78 0c0.4,-0 0.72,-0.32 0.72,-0.72l0 -11.24c0,-0.4 0.32,-0.72 0.72,-0.72l14.47 0c0.4,0 0.72,0.32 0.72,0.72l0 11.29c0,0.4 0.32,0.72 0.72,0.72l17.82 0zm-21.64 -8.78c0,-0 0,-0 0,-0 0,-0.44 -0.35,-0.79 -0.79,-0.79l-8.02 -0.01c0,-0 -0,-0 -0,-0 -0.44,0 -0.79,0.35 -0.79,0.79l-0.01 8.01c0,0 0,0 0,0 0,0.44 0.35,0.79 0.79,0.79l8.02 0.01c0,-0 0,-0 0,-0 0.44,0 0.79,-0.35 0.79,-0.79l0.01 -8.01z"/>
 </g>
</svg>
