<?xml version="1.0" encoding="UTF-8"?>
<!DOCTYPE svg PUBLIC "-//W3C//DTD SVG 1.1//EN" "http://www.w3.org/Graphics/SVG/1.1/DTD/svg11.dtd">
<!-- Creator: CorelDRAW (Versão OEM) -->
<svg xmlns="http://www.w3.org/2000/svg" xml:space="preserve" width="7.1666mm" height="7.1544mm" version="1.1" style="shape-rendering:geometricPrecision; text-rendering:geometricPrecision; image-rendering:optimizeQuality; fill-rule:evenodd; clip-rule:evenodd"
viewBox="0 0 50.11 50.02"
 xmlns:xlink="http://www.w3.org/1999/xlink"
 xmlns:xodm="http://www.corel.com/coreldraw/odm/2003">
 <defs>
  <style type="text/css">
   <![CDATA[
    .fil0 {fill:#009B34;fill-rule:nonzero}
   ]]>
  </style>
 </defs>
 <g id="Camada_x0020_14">
  <metadata id="CorelCorpID_0Corel-Layer"/>
  <path class="fil0" d="M43.08 19.56c0.81,2.29 2.63,7.27 5.48,14.93 1.15,3.09 1.66,5.34 1.53,6.72 -0.93,10.27 -15.28,12.14 -18.6,2.15 -0.09,-0.26 -0.34,-0.44 -0.61,-0.44l-9.28 0c-0.24,0 -0.45,0.15 -0.53,0.37 -3.27,9.39 -15.56,8.72 -18.42,-0.59 -0.06,-0.21 -0.19,-0.41 -0.37,-0.55 -1.47,-1.19 -2.22,-2.35 -2.23,-3.46 -0.05,-6.28 -0.06,-14.49 -0.01,-24.63 0.01,-1.63 1.48,-2.12 3,-2.15 1.32,-0.02 6.5,-0.02 15.56,0.01 1.39,0 2.87,0.65 2.87,2.13 -0,6.6 0,10.66 0.01,12.2 0.01,1.16 0.89,2.14 2.05,2.27 1.77,0.2 3.61,0.2 5.53,-0.01 1.7,-0.18 2.02,-1.59 2.02,-3.2 0.02,-8.99 0.02,-15.75 0.01,-20.26 0,-0.18 -0.14,-0.32 -0.32,-0.32l-6.54 0c-0.17,0 -0.31,-0.14 -0.31,-0.31l0 -4.12c0,-0.16 0.13,-0.29 0.28,-0.29 5.71,0 8.67,0 8.88,-0.01 2.07,-0.09 2.98,1.26 2.72,4.04 -0,0.01 -0,0.02 -0,0.03 -0.02,0.36 0.25,0.67 0.61,0.68 0.01,0 0.02,0 0.04,0l10.94 0c0.21,-0 0.39,0.17 0.39,0.39l0 13.47c0,0.24 -0.19,0.43 -0.42,0.43l-3.88 0c0,0 -0,0 -0,0 -0.21,0 -0.39,0.17 -0.39,0.39 0,0.04 0.01,0.09 0.02,0.13zm-0.16 -9.78c0,-0.16 -0.13,-0.29 -0.29,-0.29l-6.57 0c-0.16,0 -0.29,0.13 -0.29,0.29l0 4.25c0,0.16 0.13,0.29 0.29,0.29l6.57 0c0.16,0 0.29,-0.13 0.29,-0.29l0 -4.25zm-26.16 7.12c0,-0.15 -0.12,-0.26 -0.26,-0.26l-11.42 0c-0.15,0 -0.26,0.12 -0.26,0.26l0 4.31c0,0.15 0.12,0.26 0.26,0.26l11.41 0c0.15,0 0.26,-0.12 0.26,-0.26l-0 -4.31zm25.35 13.94l-4.15 -11.47c-0.07,-0.21 -0.27,-0.35 -0.5,-0.35l-1.18 0c-0.29,-0 -0.53,0.23 -0.54,0.53 -0.04,5.31 1.27,11.31 -4.98,13.47 -1.43,0.49 -3.33,0.3 -5,0.35 -4.76,0.14 -8.35,-1.55 -9.07,-6.77 -0.03,-0.23 -0.23,-0.41 -0.47,-0.42l-10.98 0c-0.24,0 -0.44,0.2 -0.44,0.44l0 7.01c0,0.12 0.1,0.21 0.21,0.21 0.06,0 0.11,-0.02 0.15,-0.06 5.36,-5.29 13.54,-2.79 15.98,4 0.06,0.18 0.23,0.3 0.42,0.3l9.26 0c0.22,0 0.43,-0.14 0.51,-0.35 1.84,-4.78 5.38,-7.03 10.62,-6.74 0,0 0.01,0 0.01,0 0.07,0 0.12,-0.05 0.12,-0.12 0,-0.01 -0,-0.03 -0.01,-0.04l0 0zm-25.39 9.67c0,-2.63 -2.13,-4.76 -4.76,-4.76 -2.63,0 -4.76,2.13 -4.76,4.76 0,2.63 2.13,4.76 4.76,4.76 2.63,0 4.76,-2.13 4.76,-4.76l0 0zm28.62 -0.01c0,-2.63 -2.14,-4.77 -4.77,-4.77 -2.63,0 -4.77,2.14 -4.77,4.77 0,2.63 2.14,4.77 4.77,4.77 2.63,0 4.77,-2.14 4.77,-4.77l0 0z"/>
 </g>
</svg>
